<svg width="1440" height="775" viewBox="0 0 1440 775" fill="none" xmlns="http://www.w3.org/2000/svg">
<path fill-rule="evenodd" clip-rule="evenodd" d="M182 610C179.51 579.164 156.284 555 128 555C99.7161 555 76.4904 579.164 74 610H182Z" fill="#FFC83E" fill-opacity="0.22"/>
<path fill-rule="evenodd" clip-rule="evenodd" d="M1440 494.01C1412.85 494.542 1391 516.72 1391 544C1391 571.28 1412.85 593.458 1440 593.99V494.01Z" fill="#9658FF" fill-opacity="0.3"/>
<path fill-rule="evenodd" clip-rule="evenodd" d="M438.14 0C457.424 49.784 468 103.907 468 160.5C468 405.991 268.991 605 23.5 605C15.6171 605 7.78204 604.795 0 604.389V605.391C7.78216 605.795 15.6172 606 23.5 606C269.543 606 469 406.543 469 160.5C469 103.916 458.451 49.7966 439.212 0H438.14Z" fill="#C5C5C5" fill-opacity="0.55"/>
<path fill-rule="evenodd" clip-rule="evenodd" d="M281.137 0C310.204 46.5596 327 101.568 327 160.5C327 328.118 191.118 464 23.5 464C15.5924 464 7.75541 463.698 0 463.104V464.107C7.7557 464.699 15.5926 465 23.5 465C191.671 465 328 328.671 328 160.5C328 101.597 311.275 46.6005 282.315 0H281.137Z" fill="#C5C5C5" fill-opacity="0.55"/>
<path d="M512.749 718.28L513.521 762.18L475.116 740.898L512.749 718.28Z" fill="#2B59FF" fill-opacity="0.2"/>
</svg>
