<svg width="20" height="20" viewBox="0 0 20 20" fill="none" xmlns="http://www.w3.org/2000/svg">
<path d="M16 8.5V17.125C16 17.3712 15.9515 17.615 15.8573 17.8425C15.763 18.07 15.6249 18.2767 15.4508 18.4508C15.2767 18.6249 15.07 18.763 14.8425 18.8573C14.615 18.9515 14.3712 19 14.125 19H2.875C2.37772 19 1.90081 18.8025 1.54917 18.4508C1.19754 18.0992 1 17.6223 1 17.125V5.875C1 5.37772 1.19754 4.90081 1.54917 4.54917C1.90081 4.19754 2.37772 4 2.875 4H10.7256" stroke="white" stroke-width="1.5" stroke-linecap="round" stroke-linejoin="round"/>
<path d="M19.5597 0.496107C19.4912 0.420846 19.4082 0.360252 19.3156 0.31799C19.2231 0.275727 19.1229 0.252672 19.0211 0.250219C18.9194 0.247765 18.8182 0.265964 18.7237 0.303715C18.6292 0.341466 18.5434 0.397985 18.4713 0.469857L17.8915 1.04689C17.8212 1.11721 17.7817 1.21255 17.7817 1.31197C17.7817 1.41138 17.8212 1.50673 17.8915 1.57704L18.423 2.10767C18.4579 2.14268 18.4993 2.17046 18.5449 2.18941C18.5905 2.20837 18.6394 2.21812 18.6888 2.21812C18.7382 2.21812 18.7871 2.20837 18.8327 2.18941C18.8783 2.17046 18.9197 2.14268 18.9546 2.10767L19.5199 1.54517C19.8058 1.2597 19.8326 0.794701 19.5597 0.496107ZM16.7191 2.21876L8.25725 10.6656C8.20594 10.7167 8.16865 10.7802 8.14896 10.8499L7.75756 12.0156C7.74818 12.0473 7.74752 12.0808 7.75564 12.1128C7.76375 12.1448 7.78035 12.174 7.80368 12.1973C7.82701 12.2207 7.85621 12.2373 7.88818 12.2454C7.92016 12.2535 7.95374 12.2528 7.98537 12.2435L9.15021 11.852C9.21989 11.8324 9.28334 11.7951 9.33443 11.7438L17.7813 3.28095C17.8595 3.20197 17.9033 3.09534 17.9033 2.98423C17.9033 2.87312 17.8595 2.7665 17.7813 2.68751L17.3149 2.21876C17.2358 2.1399 17.1287 2.09562 17.017 2.09562C16.9053 2.09562 16.7982 2.1399 16.7191 2.21876Z" fill="white"/>
</svg>