<svg width="22" height="22" viewBox="0 0 22 22" fill="none" xmlns="http://www.w3.org/2000/svg">
<path d="M21.8704 9.30482L21.7572 8.83388H11.3234V13.1661H17.5575C16.9102 16.1813 13.9068 17.7684 11.4535 17.7684C9.66849 17.7684 7.78685 17.0318 6.54143 15.8479C5.88435 15.2132 5.36132 14.4577 5.00228 13.6244C4.64324 12.7912 4.45524 11.8967 4.44906 10.9921C4.44906 9.16732 5.28501 7.34201 6.50139 6.14134C7.71777 4.94067 9.55486 4.26888 11.3814 4.26888C13.4733 4.26888 14.9725 5.35857 15.5332 5.85554L18.6712 2.79321C17.7507 1.99964 15.2218 0 11.2803 0C8.23936 0 5.32355 1.14272 3.19213 3.22683C1.08874 5.27902 0 8.24656 0 11C0 13.7534 1.03017 16.5727 3.06849 18.6411C5.24646 20.847 8.33097 22 11.5071 22C14.3969 22 17.136 20.8892 19.0882 18.8738C21.0074 16.8899 22 14.1448 22 11.2671C22 10.0557 21.8759 9.33625 21.8704 9.30482Z" fill="white"/>
</svg>
