<svg width="52" height="56" viewBox="0 0 52 56" fill="none" xmlns="http://www.w3.org/2000/svg">
<path d="M35.58 4.0725C33.1475 1.44625 29.75 0 26 0C22.23 0 18.8213 1.4375 16.4 4.0475C13.9525 6.68625 12.76 10.2725 13.04 14.145C13.595 21.785 19.4088 28 26 28C32.5913 28 38.395 21.7862 38.9588 14.1475C39.2425 10.31 38.0425 6.73125 35.58 4.0725V4.0725ZM48 56H4.00001C3.42409 56.0075 2.85375 55.8865 2.33047 55.6458C1.80719 55.4052 1.34414 55.0509 0.975013 54.6087C0.162513 53.6375 -0.164987 52.3113 0.077513 50.97C1.13251 45.1175 4.42501 40.2013 9.60001 36.75C14.1975 33.6862 20.0213 32 26 32C31.9788 32 37.8025 33.6875 42.4 36.75C47.575 40.2 50.8675 45.1163 51.9225 50.9688C52.165 52.31 51.8375 53.6362 51.025 54.6075C50.656 55.0499 50.193 55.4044 49.6697 55.6453C49.1464 55.8862 48.576 56.0073 48 56V56Z" fill="#2999C1"/>
</svg>
